<?xml version="1.0" encoding="utf-8"?>
<!-- Generator: Adobe Illustrator 27.0.0, SVG Export Plug-In . SVG Version: 6.00 Build 0)  -->
<svg version="1.1" id="Layer_1" xmlns="http://www.w3.org/2000/svg" xmlns:xlink="http://www.w3.org/1999/xlink" x="0px" y="0px"
	 viewBox="0 0 816.5 815" style="enable-background:new 0 0 816.5 815;" xml:space="preserve">
<style type="text/css">
	.st0{fill:#15192A;}
</style>
<g>
	<g>
		<path class="st0" d="M340.6,16.4c8.6,1.1,17.2,2,25.6,3.5c97.7,17.5,172.9,68.4,220.2,155.5c50.1,92.3,50.4,187.4,4.9,282.2
			c-1.5,3.2-3.2,6.3-5,10c20.8,17.7,41.4,35.2,62,52.6c43,36.5,86.1,73,129.1,109.5c19.7,16.7,28.4,37.6,19.6,62.7
			c-3.2,9.3-9.6,18.1-16.4,25.3c-20.5,21.7-42,42.6-63.2,63.6c-27.7,27.4-62.9,26.2-88.2-3.4c-52.9-62-105.5-124.2-158.2-186.3
			c-1.2-1.4-2.3-2.7-3.9-4.4c-2,0.8-4.1,1.5-6.1,2.5c-84.4,42.9-170.9,47-258.2,11.1c-69.1-28.4-120.6-77.3-154.6-144.1
			C30.7,422.2,20,385.4,16.9,346.5c-0.1-1.7-0.8-3.4-1.3-5.1c0-13.8,0-27.6,0-41.4c0.4-2,1.1-3.9,1.3-5.9
			c3.4-42,15.2-81.8,35.8-118.4C101.6,89.1,175.7,37.4,273.6,19.9c8.5-1.5,17.1-2.3,25.6-3.5C313,16.4,326.8,16.4,340.6,16.4z
			 M113.4,321c0.6,114.3,93.2,206.6,206.9,206.1c114.2-0.5,206.6-93.2,206.1-206.8C525.8,206,433,113.6,319.5,114.1
			C205.2,114.7,112.8,207.4,113.4,321z M742.2,664.8c0-10.5-5.1-16.4-11.2-21.7c-34.7-30.2-69.3-60.3-104-90.5
			c-13.3-11.6-26.4-23.3-39.9-34.6c-14.4-12.1-32.2-8-39.7,8.7c-4.6,10.3-1.7,20.1,9.2,29.7c33.3,29,66.6,58,100,86.9
			c15.8,13.7,31.6,27.4,47.7,40.8c7.5,6.2,16,6,24.3,1.4C737.3,680.6,741.7,673,742.2,664.8z"/>
	</g>
</g>
</svg>
